<?xml version="1.0" encoding="UTF-8"?>
<svg xmlns="http://www.w3.org/2000/svg" xmlns:xlink="http://www.w3.org/1999/xlink" width="341.98pt" height="255.65pt" viewBox="0 0 341.98 255.65" version="1.1">
<defs>
<clipPath id="clip1">
  <path d="M 44 0 L 341.980469 0 L 341.980469 255.648438 L 44 255.648438 Z M 44 0 "/>
</clipPath>
<clipPath id="clip2">
  <path d="M 288 53 L 341.980469 53 L 341.980469 140 L 288 140 Z M 288 53 "/>
</clipPath>
<clipPath id="clip3">
  <path d="M 235 252 L 241 252 L 241 255.648438 L 235 255.648438 Z M 235 252 "/>
</clipPath>
</defs>
<g id="surface1">
<path style=" stroke:none;fill-rule:nonzero;fill:rgb(97.599792%,71.798706%,8.599854%);fill-opacity:1;" d="M 149.730469 221.597656 C 149.730469 221.597656 153.8125 226.738281 141.394531 234.367188 C 128.980469 241.992188 123.839844 243.410156 105.75 242.699219 C 87.660156 241.992188 60.882813 235.960938 59.464844 235.429688 C 59.464844 235.429688 60.707031 233.476563 70.28125 229.578125 C 70.28125 229.578125 58.929688 229.929688 58.753906 226.207031 C 58.753906 226.207031 139.976563 179.210938 145.296875 213.4375 C 145.296875 213.4375 149.199219 220.710938 149.730469 221.597656 "/>
<path style="fill:none;stroke-width:5.072;stroke-linecap:butt;stroke-linejoin:miter;stroke:rgb(88.598633%,12.199402%,14.898682%);stroke-opacity:1;stroke-miterlimit:4;" d="M 1497.304688 340.523438 C 1497.304688 340.523438 1538.125 289.117188 1413.945313 212.828125 C 1289.804688 136.578125 1238.398438 122.398438 1057.5 129.507813 C 876.601563 136.578125 608.828125 196.890625 594.648438 202.203125 C 594.648438 202.203125 607.070313 221.734375 702.8125 260.71875 C 702.8125 260.71875 589.296875 257.203125 587.539063 294.429688 C 587.539063 294.429688 1399.765625 764.390625 1452.96875 422.125 C 1452.96875 422.125 1491.992188 349.390625 1497.304688 340.523438 Z M 1497.304688 340.523438 " transform="matrix(0.1,0,0,-0.1,0,255.65)"/>
<path style=" stroke:none;fill-rule:nonzero;fill:rgb(100%,85.899353%,59.199524%);fill-opacity:1;" d="M 144.058594 224.257813 C 144.058594 224.257813 136.074219 237.558594 112.667969 237.558594 C 89.257813 237.558594 67.976563 235.785156 71.699219 233.300781 C 75.425781 230.816406 108.054688 205.636719 125.789063 211.664063 C 143.523438 217.695313 144.058594 220.710938 144.058594 224.257813 "/>
<path style=" stroke:none;fill-rule:nonzero;fill:rgb(99.198914%,97.599792%,77.2995%);fill-opacity:1;" d="M 136.964844 226.207031 C 136.964844 226.207031 135.898438 229.578125 122.421875 231.882813 C 108.941406 234.1875 94.035156 232.238281 95.464844 230.996094 C 96.894531 229.753906 109.652344 225.675781 109.652344 225.675781 C 109.652344 225.675781 93.335938 228.160156 98.125 226.03125 C 102.914063 223.902344 114.261719 221.773438 114.972656 221.773438 C 115.683594 221.773438 94.140625 223.191406 100.210938 221.417969 C 106.28125 219.644531 128.097656 214.855469 133.414063 217.164063 C 138.734375 219.46875 138.382813 224.078125 136.964844 226.207031 "/>
<path style=" stroke:none;fill-rule:nonzero;fill:rgb(97.599792%,71.798706%,8.599854%);fill-opacity:1;" d="M 109.476563 212.550781 C 109.476563 212.550781 112.84375 216.628906 89.96875 225.144531 C 67.089844 233.65625 60.707031 228.335938 60.707031 228.335938 C 60.707031 228.335938 39.070313 229.222656 41.550781 227.804688 C 44.035156 226.386719 46.519531 225.320313 46.519531 225.320313 C 46.519531 225.320313 39.957031 223.371094 33.570313 223.546875 C 27.1875 223.722656 20.980469 223.546875 19.207031 222.660156 C 17.433594 221.773438 14.949219 220.53125 14.949219 220.53125 C 14.949219 220.53125 -2.960938 221.597656 0.761719 219.46875 C 4.488281 217.339844 32.683594 207.054688 32.683594 207.054688 C 32.683594 207.054688 21.867188 206.34375 26.476563 204.21875 C 31.089844 202.089844 47.9375 194.285156 59.285156 189.671875 C 70.636719 185.0625 86.953125 175.132813 104.507813 186.128906 C 122.066406 197.121094 109.476563 212.550781 109.476563 212.550781 "/>
<path style="fill:none;stroke-width:5.072;stroke-linecap:butt;stroke-linejoin:miter;stroke:rgb(88.598633%,12.199402%,14.898682%);stroke-opacity:1;stroke-miterlimit:4;" d="M 1094.765625 430.992188 C 1094.765625 430.992188 1128.4375 390.210938 899.6875 305.054688 C 670.898438 219.9375 607.070313 273.140625 607.070313 273.140625 C 607.070313 273.140625 390.703125 264.273438 415.507813 278.453125 C 440.351563 292.632813 465.195313 303.296875 465.195313 303.296875 C 465.195313 303.296875 399.570313 322.789063 335.703125 321.03125 C 271.875 319.273438 209.804688 321.03125 192.070313 329.898438 C 174.335938 338.765625 149.492188 351.1875 149.492188 351.1875 C 149.492188 351.1875 -29.609375 340.523438 7.617188 361.8125 C 44.882813 383.101563 326.835938 485.953125 326.835938 485.953125 C 326.835938 485.953125 218.671875 493.0625 264.765625 514.3125 C 310.898438 535.601563 479.375 613.648438 592.851563 659.78125 C 706.367188 705.875 869.53125 805.171875 1045.078125 695.210938 C 1220.664063 585.289063 1094.765625 430.992188 1094.765625 430.992188 Z M 1094.765625 430.992188 " transform="matrix(0.1,0,0,-0.1,0,255.65)"/>
<path style=" stroke:none;fill-rule:nonzero;fill:rgb(100%,85.899353%,59.199524%);fill-opacity:1;" d="M 104.6875 212.199219 C 104.6875 212.199219 94.222656 221.773438 85.710938 223.191406 C 77.199219 224.609375 68.152344 227.09375 68.863281 224.609375 C 69.574219 222.128906 70.992188 219.644531 67.796875 220 C 64.605469 220.355469 49.886719 225.320313 53.078125 222.128906 C 56.273438 218.9375 61.058594 217.164063 56.449219 217.164063 C 51.839844 217.164063 13.355469 218.9375 21.867188 215.746094 C 30.378906 212.550781 53.078125 209.714844 49.53125 209.359375 C 45.984375 209.003906 35.699219 208.117188 40.308594 206.167969 C 44.921875 204.21875 57.335938 201.023438 54.851563 200.847656 C 52.371094 200.667969 60.527344 193.398438 72.410156 189.320313 C 84.292969 185.242188 120.292969 179.566406 104.6875 212.199219 "/>
<path style=" stroke:none;fill-rule:nonzero;fill:rgb(99.198914%,97.599792%,77.2995%);fill-opacity:1;" d="M 100.605469 206.878906 C 100.054688 211.566406 80.390625 219.46875 80.746094 217.339844 C 81.097656 215.210938 91.03125 208.292969 86.773438 209.714844 C 82.519531 211.132813 70.28125 216.277344 72.054688 213.96875 C 73.828125 211.664063 84.46875 207.054688 81.632813 207.410156 C 78.792969 207.761719 58.929688 212.550781 63.1875 210.601563 C 67.445313 208.652344 84.292969 202.976563 80.566406 203.863281 C 76.84375 204.75 61.238281 206.523438 65.492188 204.925781 C 69.75 203.332031 86.066406 200.667969 82.164063 200.667969 C 78.261719 200.667969 65.492188 201.378906 69.039063 199.25 C 72.585938 197.121094 103.269531 184.355469 100.605469 206.878906 "/>
<g clip-path="url(#clip1)" clip-rule="nonzero">
<path style=" stroke:none;fill-rule:nonzero;fill:rgb(13.699341%,12.199402%,12.5%);fill-opacity:1;" d="M 321.570313 37.417969 L 302.402344 4.242188 L 299.636719 0.00390625 C 297.296875 7.726563 294.976563 15.449219 290.976563 22.488281 C 274.054688 19.300781 256.398438 22.136719 243.605469 32.808594 C 239.753906 36.054688 237.359375 40.054688 234.390625 43.5 L 210.429688 50.136719 L 201.214844 52.898438 L 201.214844 53.269531 C 209.492188 60.714844 217.542969 68.769531 224.992188 77.046875 L 225.175781 78.519531 C 223.828125 79.625 222.300781 80.34375 221.121094 81.835938 C 217.195313 86.09375 216.84375 92.988281 219.277344 98.058594 C 223.773438 106.019531 232.179688 111.4375 241.394531 110.589844 C 241.910156 111.125 242.003906 111.824219 242.316406 112.433594 C 242.554688 114.035156 245.394531 115.511719 243.605469 117.039063 C 236.65625 112.984375 228.675781 110.3125 220.015625 111.511719 C 200.089844 106.589844 178.785156 105.003906 156.796875 105.0625 C 140.28125 102.242188 122.21875 100.378906 104.816406 102.480469 C 92.0625 96.398438 77.136719 101.648438 65.191406 105.796875 C 61.855469 106.386719 58.628906 105.59375 55.605469 104.875 C 52.269531 104.65625 48.273438 102.792969 45.285156 105.0625 C 44.03125 107.105469 44.253906 109.980469 45.285156 112.066406 C 46.058594 114.921875 50.207031 115.085938 50.078125 118.148438 C 51.605469 120.230469 54.039063 120.894531 56.34375 121.464844 C 59.460938 122.109375 62.371094 121.097656 65.375 120.910156 C 66.757813 122.402344 68.101563 123.898438 68.324219 125.886719 C 68.304688 126.921875 67.457031 127.953125 66.480469 128.285156 C 61.929688 128.027344 57.835938 128.910156 54.871094 132.523438 C 53.046875 134.808594 52.914063 138.125 53.949219 140.816406 C 56.066406 143.636719 60.34375 143.15625 63.53125 142.660156 C 70.113281 140.855469 74.703125 144.964844 80.488281 145.609375 C 87.53125 144.964844 93.503906 141.777344 99.65625 138.972656 C 114.828125 143.066406 131.800781 143.359375 148.5 143.214844 L 172.644531 143.949219 L 198.816406 144.503906 C 196.109375 146.292969 193.160156 148.316406 190.339844 150.21875 C 182.210938 149.941406 175.613281 154.804688 170.066406 160.90625 L 162.277344 163.738281 C 160.929688 164.214844 159.78125 164.648438 158.835938 165.019531 C 158.726563 165.011719 158.617188 164.996094 158.507813 164.976563 C 157.058594 164.109375 155.652344 163.53125 154.40625 163.140625 C 152.851563 162.597656 152.21875 162.453125 150.894531 162.382813 C 140.355469 161.183594 130.382813 165.238281 125.09375 174.546875 C 119.765625 176.316406 114.699219 178.636719 109.609375 181 C 103.121094 184.757813 93.226563 186.101563 91.363281 195.191406 C 89.1875 202.175781 92.175781 209.03125 97.628906 213.621094 C 103.511719 219.113281 112.375 216.332031 119.746094 216.015625 L 120.117188 216.386719 C 119.617188 217.675781 120.246094 218.964844 120.300781 220.257813 C 121.40625 224.808594 126.347656 228.753906 130.808594 229.472656 C 143.136719 228.585938 155.300781 227.351563 167.117188 225.234375 C 170.378906 225.636719 173.882813 226.023438 177.253906 225.601563 C 185.402344 224.679688 193.898438 219.113281 196.238281 210.855469 C 197.085938 209.769531 198.78125 209.972656 199.925781 209.199219 C 205.546875 208.867188 210.945313 207.960938 215.773438 205.695313 C 219.296875 202.746094 223.976563 202.597656 227.941406 200.71875 L 228.125 200.902344 C 227.441406 202.691406 226.503906 204.351563 226.097656 206.25 C 224.824219 207.945313 222.503906 209.050781 221.121094 210.855469 C 219.628906 213.914063 215.773438 216.015625 214.855469 219.335938 C 214.816406 220.828125 213.96875 223.09375 215.589844 224.128906 C 217.15625 224.976563 218.964844 224.179688 220.382813 223.574219 C 221.011719 224.054688 221.25 224.679688 221.671875 225.234375 C 221.785156 226.539063 221.824219 227.878906 222.007813 229.160156 C 222.035156 229.390625 222.078125 229.636719 222.132813 229.890625 C 222.265625 230.5625 222.453125 231.210938 222.734375 231.828125 C 223.148438 232.835938 223.773438 233.941406 224.691406 235.097656 C 224.925781 236.949219 224.085938 239.113281 224.804688 240.898438 C 225.617188 242.632813 227.40625 243.570313 229.230469 243.664063 C 231.847656 246.59375 229.195313 251.699219 232.914063 254.167969 C 234.539063 255.609375 236.84375 255.902344 239 255.460938 C 240.253906 254.777344 240.878906 253.503906 240.84375 252.144531 C 242.539063 250.335938 242.207031 247.699219 242.5 245.324219 C 247.164063 240.972656 249.429688 235.296875 249.136719 228.734375 C 258.390625 219.222656 264.636719 208.148438 269.964844 196.847656 C 277.242188 185.640625 284.320313 174.34375 287.105469 161.277344 C 289.464844 153.203125 286.109375 145.167969 279.730469 140.265625 C 280.304688 139.839844 280.949219 139.601563 281.574219 139.34375 C 293.960938 141.757813 307.5625 140.484375 317.332031 133.261719 C 322.675781 129.351563 326.84375 123.859375 325.257813 117.226563 C 331.855469 109.871094 337.015625 101.925781 340.003906 93.078125 C 346.160156 71.957031 337.386719 51.8125 321.570313 37.417969 "/>
</g>
<path style=" stroke:none;fill-rule:nonzero;fill:rgb(99.198914%,88.198853%,83.099365%);fill-opacity:1;" d="M 240.671875 84.480469 C 238.214844 82.398438 233.863281 81.453125 231.96875 81.453125 C 230.078125 81.453125 227.996094 82.210938 229.699219 79.371094 C 230.328125 78.320313 231.992188 77.789063 233.839844 77.535156 C 233.777344 77.53125 233.714844 77.527344 233.652344 77.523438 C 232.007813 77.519531 230.351563 77.730469 228.765625 78.167969 C 227.019531 79.265625 225.460938 80.671875 224.589844 81.828125 C 222.886719 84.101563 224.023438 85.046875 226.671875 85.613281 C 229.320313 86.183594 232.535156 87.695313 234.808594 89.398438 C 237.078125 91.101563 240.671875 96.96875 241.242188 99.046875 C 241.808594 101.128906 242.941406 102.265625 244.269531 99.996094 C 245.59375 97.722656 245.972656 94.316406 245.59375 88.832031 C 245.578125 88.589844 245.550781 88.347656 245.515625 88.109375 C 245.253906 88.320313 244.964844 88.453125 244.648438 88.453125 C 243.132813 88.453125 243.132813 86.5625 240.671875 84.480469 "/>
<path style=" stroke:none;fill-rule:nonzero;fill:rgb(99.598694%,92.498779%,88.999939%);fill-opacity:1;" d="M 233.839844 77.535156 C 231.992188 77.789063 230.328125 78.320313 229.699219 79.371094 C 227.996094 82.210938 230.078125 81.453125 231.96875 81.453125 C 233.863281 81.453125 238.214844 82.398438 240.671875 84.480469 C 243.132813 86.5625 243.132813 88.453125 244.648438 88.453125 C 244.964844 88.453125 245.253906 88.320313 245.515625 88.109375 C 245.179688 85.554688 244.042969 83.210938 242.976563 81.488281 C 240.441406 79.199219 237.292969 77.671875 233.839844 77.535156 "/>
<path style=" stroke:none;fill-rule:nonzero;fill:rgb(95.298767%,80.39856%,73.699951%);fill-opacity:1;" d="M 262.433594 126.863281 C 251.835938 114.941406 247.484375 99.046875 255.242188 87.316406 C 255.242188 87.316406 252.214844 75.394531 258.460938 63.285156 C 263.613281 53.289063 271.738281 42.644531 290.492188 35.617188 C 271.34375 37.1875 254.988281 49.214844 245.082031 65.914063 C 248.160156 66.796875 251.476563 67.148438 254.664063 67.757813 L 255.21875 68.308594 C 250.867188 72.382813 247.273438 77.082031 244.898438 82.132813 C 245.46875 83.09375 246.113281 83.996094 246.371094 85.082031 L 246.1875 85.265625 C 245.285156 83.878906 244.203125 82.59375 242.976563 81.488281 C 244.144531 83.371094 245.398438 86 245.59375 88.832031 C 245.972656 94.316406 245.59375 97.722656 244.269531 99.996094 C 242.941406 102.265625 241.808594 101.128906 241.242188 99.046875 C 240.671875 96.96875 237.078125 91.101563 234.808594 89.398438 C 232.535156 87.695313 229.320313 86.183594 226.671875 85.613281 C 224.023438 85.046875 222.886719 84.101563 224.589844 81.828125 C 225.460938 80.671875 227.019531 79.265625 228.765625 78.167969 C 225.34375 79.113281 222.238281 81.121094 220.199219 84.34375 C 217.195313 88.933594 218.523438 95.847656 221.488281 100.011719 C 227.257813 107.457031 235.847656 111.84375 245.265625 109.042969 L 245.449219 109.226563 C 244.546875 109.910156 243.476563 110.203125 242.5 110.703125 C 248.757813 123.105469 260.96875 130.605469 273.003906 135.65625 C 269.421875 133.425781 265.703125 130.539063 262.433594 126.863281 "/>
<path style=" stroke:none;fill-rule:nonzero;fill:rgb(99.198914%,88.198853%,83.099365%);fill-opacity:1;" d="M 320.898438 115.320313 C 320.898438 115.320313 330.929688 108.886719 335.28125 96.589844 C 339.277344 85.292969 340.238281 64.898438 328.496094 54.757813 C 326.457031 55.707031 324.417969 56.65625 322.308594 57.4375 C 318.421875 50.746094 313.941406 44.292969 309.773438 37.714844 C 306.699219 36.480469 303.140625 36.367188 299.820313 35.6875 C 296.652344 35.382813 293.535156 35.367188 290.492188 35.617188 C 271.738281 42.644531 263.613281 53.289063 258.460938 63.285156 C 252.214844 75.394531 255.242188 87.316406 255.242188 87.316406 C 247.484375 99.046875 251.835938 114.941406 262.433594 126.863281 C 265.703125 130.539063 269.421875 133.425781 273.003906 135.65625 C 274.828125 136.425781 276.648438 137.132813 278.441406 137.796875 C 281.75 138.65625 285.175781 139.234375 288.617188 139.496094 C 294.707031 139.074219 302.070313 137.878906 307.464844 134.808594 C 318.441406 128.566406 324.304688 122.890625 320.898438 115.320313 "/>
<g clip-path="url(#clip2)" clip-rule="nonzero">
<path style=" stroke:none;fill-rule:nonzero;fill:rgb(99.598694%,92.498779%,88.999939%);fill-opacity:1;" d="M 341.292969 77.894531 C 340.316406 68.789063 337.9375 60.089844 331.523438 53.378906 C 330.507813 53.824219 329.5 54.289063 328.496094 54.757813 C 340.238281 64.898438 339.277344 85.292969 335.28125 96.589844 C 330.929688 108.886719 320.898438 115.320313 320.898438 115.320313 C 324.304688 122.890625 318.441406 128.566406 307.464844 134.808594 C 302.070313 137.878906 294.707031 139.074219 288.617188 139.496094 C 300.53125 140.390625 312.667969 137.402344 321.019531 128.578125 C 323.46875 125.300781 326.417969 121.28125 324.152344 116.96875 C 334.289063 105.761719 341.660156 93.433594 341.292969 77.894531 "/>
</g>
<path style=" stroke:none;fill-rule:nonzero;fill:rgb(95.298767%,80.39856%,73.699951%);fill-opacity:1;" d="M 300.320313 67.445313 C 299.847656 65.554688 299.269531 66.394531 298.875 68.496094 C 298.484375 70.59375 298.089844 72.957031 297.828125 74.136719 C 297.566406 75.316406 296.777344 75.972656 299.007813 75.972656 C 301.238281 75.972656 301.894531 74.925781 301.761719 72.695313 C 301.632813 70.464844 300.453125 67.96875 300.320313 67.445313 "/>
<path style=" stroke:none;fill-rule:nonzero;fill:rgb(95.298767%,80.39856%,73.699951%);fill-opacity:1;" d="M 311.867188 69.019531 C 311.867188 69.019531 312.523438 72.167969 311.078125 73.480469 C 309.636719 74.792969 309.636719 75.054688 306.355469 75.054688 C 306.355469 75.054688 310.6875 71.644531 311.867188 69.019531 "/>
<path style=" stroke:none;fill-rule:nonzero;fill:rgb(95.298767%,80.39856%,73.699951%);fill-opacity:1;" d="M 324.59375 83.714844 C 324.59375 83.714844 321.96875 85.945313 321.839844 85.289063 C 321.707031 84.632813 321.3125 83.714844 321.445313 83.058594 C 321.578125 82.402344 328.398438 76.5 329.710938 81.089844 C 331.023438 85.683594 325.382813 82.535156 324.59375 83.714844 "/>
<path style=" stroke:none;fill-rule:nonzero;fill:rgb(95.298767%,80.39856%,73.699951%);fill-opacity:1;" d="M 277.621094 113.5 L 276.046875 113.632813 C 276.046875 113.632813 276.175781 110.480469 278.933594 110.480469 C 281.6875 110.480469 282.605469 109.828125 282.476563 111.140625 L 277.621094 113.5 "/>
<path style=" stroke:none;fill-rule:nonzero;fill:rgb(95.298767%,80.39856%,73.699951%);fill-opacity:1;" d="M 283.789063 125.703125 C 283.039063 125.453125 281.949219 125.835938 282.34375 126.882813 C 282.738281 127.933594 283.65625 128.195313 284.574219 127.671875 C 285.492188 127.148438 284.574219 125.964844 283.789063 125.703125 "/>
<path style=" stroke:none;fill-rule:nonzero;fill:rgb(99.598694%,92.498779%,88.999939%);fill-opacity:1;" d="M 278.671875 93.292969 C 276.972656 93.113281 276.441406 94.082031 276.832031 95.394531 C 277.226563 96.703125 278.015625 96.96875 279.0625 96.703125 C 280.113281 96.441406 281.164063 93.554688 278.671875 93.292969 "/>
<path style=" stroke:none;fill-rule:nonzero;fill:rgb(99.598694%,92.498779%,88.999939%);fill-opacity:1;" d="M 317.902344 116.386719 C 317.902344 117.183594 317.226563 117.832031 316.394531 117.832031 C 315.558594 117.832031 314.882813 117.183594 314.882813 116.386719 C 314.882813 115.589844 315.558594 114.945313 316.394531 114.945313 C 317.226563 114.945313 317.902344 115.589844 317.902344 116.386719 "/>
<path style=" stroke:none;fill-rule:nonzero;fill:rgb(100%,100%,100%);fill-opacity:1;" d="M 284.339844 26.359375 C 274.074219 27.945313 263.679688 29.195313 254.480469 33.363281 C 253.558594 33.601563 252.636719 34.414063 251.714844 34.101563 C 252.324219 32.753906 253.761719 31.871094 254.851563 30.96875 C 261.449219 27.078125 268.949219 25.363281 276.96875 24.882813 C 279.457031 25.289063 282.550781 24.644531 284.339844 26.359375 "/>
<path style=" stroke:none;fill-rule:nonzero;fill:rgb(100%,100%,100%);fill-opacity:1;" d="M 293.738281 27.097656 C 292.433594 28.203125 290.550781 27.371094 289.132813 27.097656 C 289.003906 26.910156 288.691406 26.800781 288.761719 26.542969 C 290.203125 25.621094 292.707031 25.804688 293.738281 27.097656 "/>
<path style=" stroke:none;fill-rule:nonzero;fill:rgb(13.699341%,12.199402%,12.5%);fill-opacity:1;" d="M 289.316406 51.425781 L 289.132813 52.714844 L 289.316406 51.425781 "/>
<path style=" stroke:none;fill-rule:nonzero;fill:rgb(13.699341%,12.199402%,12.5%);fill-opacity:1;" d="M 298.773438 64.859375 L 299.269531 64.695313 C 299.085938 64.734375 298.921875 64.792969 298.773438 64.859375 "/>
<path style=" stroke:none;fill-rule:nonzero;fill:rgb(13.699341%,12.199402%,12.5%);fill-opacity:1;" d="M 295.398438 54.742188 C 295.933594 54.394531 295.636719 53.34375 296.503906 53.453125 C 297.664063 55.222656 298.515625 57.121094 299.453125 58.980469 C 299.066406 59.738281 298.273438 59.515625 297.792969 60.089844 C 297.277344 58.1875 296.742188 56.289063 295.398438 54.742188 Z M 299.636719 59.351563 C 301.609375 62.796875 302.457031 66.722656 303.878906 70.410156 C 303.289063 63.40625 299.675781 57.65625 296.320313 51.792969 C 294.070313 48.566406 290.828125 45.433594 287.105469 44.605469 C 279.382813 43.296875 273.335938 47.5 268.304688 52.898438 C 272.265625 49.746094 276.46875 46.375 281.390625 45.160156 C 287.640625 43.8125 292.800781 47.445313 296.136719 52.53125 C 296.007813 53.285156 295.730469 53.96875 295.214844 54.558594 C 293.296875 53.785156 291.398438 53.027344 289.132813 53.085938 C 287.234375 53.820313 285.152344 54.171875 283.417969 55.296875 C 282.828125 54.613281 283.085938 53.582031 282.496094 52.898438 C 282.734375 53.691406 282.996094 54.503906 283.234375 55.296875 C 281.742188 56.382813 280.027344 57.710938 278.996094 59.164063 C 272.691406 65.839844 270.296875 76.84375 274.386719 85.152344 C 277.777344 86.738281 280.949219 88.878906 284.707031 89.578125 C 292.539063 86.09375 295.601563 77.726563 297.242188 70.226563 C 297.617188 68.425781 297.035156 65.671875 298.773438 64.859375 L 298.164063 65.0625 C 297.425781 63.8125 298.070313 62.003906 297.609375 60.640625 C 298.183594 59.976563 298.9375 59.699219 299.636719 59.351563 "/>
<path style=" stroke:none;fill-rule:nonzero;fill:rgb(100%,100%,100%);fill-opacity:1;" d="M 288.949219 55.113281 C 282.183594 58.28125 277.058594 65.617188 277.519531 73.175781 C 279.179688 72.859375 280.726563 72.289063 282.496094 72.253906 L 278.625 76.308594 C 278.921875 78.113281 280.617188 79.367188 282.128906 80.179688 C 284.835938 80.859375 288.101563 80.695313 290.238281 78.886719 C 293.445313 76.527344 295.4375 73.191406 296.6875 70.039063 C 295.085938 77.378906 292.007813 85.558594 284.523438 89.023438 C 281.152344 87.902344 278.019531 86.1875 274.753906 84.785156 C 271.234375 77.007813 272.839844 66.761719 278.808594 60.640625 C 281.777344 57.820313 285.078125 55.773438 288.949219 55.113281 "/>
<path style=" stroke:none;fill-rule:nonzero;fill:rgb(100%,100%,100%);fill-opacity:1;" d="M 291.160156 57.878906 C 290.847656 59.996094 288.78125 61.394531 287.289063 63.035156 C 285.28125 64.640625 283.363281 66.464844 281.023438 67.277344 C 279.972656 65.820313 280.636719 64.402344 281.023438 62.851563 C 282.808594 60.199219 285.539063 57.453125 288.394531 56.21875 C 289.554688 56.179688 290.589844 56.84375 291.160156 57.878906 "/>
<path style=" stroke:none;fill-rule:nonzero;fill:rgb(13.699341%,12.199402%,12.5%);fill-opacity:1;" d="M 307.011719 74.648438 L 306.824219 74.648438 C 310.660156 72.140625 312.890625 68.347656 312.910156 63.960938 C 313.570313 68.601563 310.9375 72.546875 307.011719 74.648438 "/>
<path style=" stroke:none;fill-rule:nonzero;fill:rgb(13.699341%,12.199402%,12.5%);fill-opacity:1;" d="M 336.316406 75.753906 C 338.011719 78.628906 337.753906 82.738281 337.238281 86.074219 C 337.257813 81.964844 337.625 77.710938 334.65625 74.832031 C 333.164063 74.484375 331.746094 75.367188 330.417969 75.9375 C 327.191406 78.132813 323.929688 80.269531 320.28125 81.46875 L 320.28125 80.914063 L 323.78125 76.308594 C 323.378906 77.617188 322.546875 78.757813 321.941406 79.992188 L 322.125 80.179688 C 326.03125 78.535156 329.21875 75.144531 333.367188 74.097656 C 334.566406 74.113281 335.746094 74.59375 336.316406 75.753906 "/>
<path style=" stroke:none;fill-rule:nonzero;fill:rgb(13.699341%,12.199402%,12.5%);fill-opacity:1;" d="M 328.941406 79.992188 C 330.105469 79.773438 331.136719 80.398438 332.078125 80.179688 C 332.132813 80.34375 332.003906 80.4375 331.894531 80.546875 C 333.238281 81.117188 332.941406 83.257813 334.289063 82.941406 C 333.054688 83.992188 334.324219 85.410156 333.921875 86.8125 C 334.214844 87.402344 334.492188 86.925781 334.839844 86.8125 L 333.921875 87.734375 C 332.683594 96.066406 329.3125 103.492188 323.78125 110.035156 C 322.457031 111.160156 321.203125 112.46875 319.542969 112.800781 C 316.851563 111.808594 314.621094 109.742188 312.171875 108.195313 C 315.800781 99.476563 318.585938 90.261719 324.703125 82.757813 L 324.519531 82.757813 L 324.519531 81.285156 L 324.703125 81.285156 C 324.667969 81.671875 324.742188 81.984375 325.074219 82.203125 C 326.050781 82.1875 326.03125 80.953125 326.914063 80.730469 C 327.46875 80.417969 328.1875 80.511719 328.574219 79.808594 L 328.390625 79.808594 L 328.390625 77.78125 L 328.574219 77.78125 C 328.703125 78.519531 328.261719 79.476563 328.941406 79.992188 "/>
<path style=" stroke:none;fill-rule:nonzero;fill:rgb(100%,100%,100%);fill-opacity:1;" d="M 330.050781 82.574219 C 328.628906 85.171875 325.867188 87.714844 323.414063 89.394531 C 323.101563 89.097656 322.53125 88.582031 322.675781 87.921875 C 322.84375 85.652344 324.261719 83.753906 326.179688 82.390625 C 327.339844 82.132813 329.109375 81.15625 330.050781 82.574219 "/>
<path style=" stroke:none;fill-rule:nonzero;fill:rgb(13.699341%,12.199402%,12.5%);fill-opacity:1;" d="M 334.839844 82.390625 L 335.117188 82.390625 L 335.117188 82.113281 L 334.839844 82.113281 L 334.839844 82.390625 "/>
<path style=" stroke:none;fill-rule:nonzero;fill:rgb(13.699341%,12.199402%,12.5%);fill-opacity:1;" d="M 237.339844 91.972656 C 237.5625 93.023438 238.558594 93.742188 238.445313 94.921875 C 237.78125 93.835938 236.675781 92.285156 235.3125 92.15625 C 234.152344 92.121094 233.359375 93.375 232.546875 93.816406 C 232.492188 94.222656 232.601563 93.117188 232.914063 92.894531 C 233.800781 91.769531 235.480469 91.992188 236.601563 91.972656 C 236.160156 90.722656 235.128906 90.464844 234.207031 89.578125 C 233.082031 88.621094 231.148438 89.0625 229.78125 89.210938 C 232.660156 88.175781 235.773438 89.136719 237.339844 91.972656 "/>
<path style=" stroke:none;fill-rule:nonzero;fill:rgb(100%,100%,100%);fill-opacity:1;" d="M 321.570313 95.105469 C 320.667969 97.523438 316.484375 99.050781 318.253906 102.109375 C 318.546875 103.144531 319.324219 104.101563 320.28125 104.691406 C 322.253906 105.484375 324.558594 104.914063 326.179688 103.769531 C 327.617188 102.425781 328.832031 101.023438 329.863281 99.53125 C 327.449219 104.195313 324.816406 109.742188 319.542969 112.25 C 317.148438 111.070313 314.898438 109.539063 312.722656 107.824219 C 314.550781 103.714844 316.132813 99.363281 318.070313 95.476563 C 317.847656 95.769531 317.902344 96.195313 317.886719 96.582031 L 318.070313 96.765625 C 319.230469 96.214844 320.335938 95.457031 321.570313 95.105469 "/>
<path style=" stroke:none;fill-rule:nonzero;fill:rgb(13.699341%,12.199402%,12.5%);fill-opacity:1;" d="M 238.628906 95.289063 L 238.90625 95.289063 L 238.90625 95.015625 L 238.628906 95.015625 L 238.628906 95.289063 "/>
<path style=" stroke:none;fill-rule:nonzero;fill:rgb(13.699341%,12.199402%,12.5%);fill-opacity:1;" d="M 307.011719 104.507813 C 308.484375 104.839844 310.015625 105.796875 310.695313 107.273438 C 311.453125 109.316406 311.027344 111.769531 309.589844 113.355469 C 308.191406 114.535156 306.347656 115.214844 304.429688 114.644531 C 302.570313 114.164063 300.171875 112.949219 299.820313 110.773438 C 299.507813 109.097656 299.785156 107.179688 300.742188 105.796875 C 301.847656 102.792969 306.753906 105.851563 306.089844 101.742188 L 306.457031 101.191406 C 306.53125 102.332031 304.558594 104.359375 307.011719 104.507813 "/>
<path style=" stroke:none;fill-rule:nonzero;fill:rgb(13.699341%,12.199402%,12.5%);fill-opacity:1;" d="M 245.816406 108.929688 L 246.09375 108.929688 L 246.09375 108.652344 L 245.816406 108.652344 L 245.816406 108.929688 "/>
<path style=" stroke:none;fill-rule:nonzero;fill:rgb(13.699341%,12.199402%,12.5%);fill-opacity:1;" d="M 245.449219 109.113281 L 245.726563 109.113281 L 245.726563 108.839844 L 245.449219 108.839844 L 245.449219 109.113281 "/>
<path style=" stroke:none;fill-rule:nonzero;fill:rgb(13.699341%,12.199402%,12.5%);fill-opacity:1;" d="M 278.808594 113.171875 C 284.671875 114.3125 290.550781 115.789063 294.660156 120.726563 C 295.085938 121.390625 295.195313 122.183594 295.398438 122.9375 C 291.804688 115.988281 284.082031 114.3125 276.96875 113.539063 C 278.425781 112.726563 280.210938 111.859375 281.945313 111.328125 C 280.984375 112.136719 279.660156 112.46875 278.808594 113.171875 "/>
<path style=" stroke:none;fill-rule:nonzero;fill:rgb(95.298767%,80.39856%,73.699951%);fill-opacity:1;" d="M 64.269531 119.804688 L 64.269531 119.988281 C 61.632813 119.953125 59.460938 121.59375 56.714844 120.726563 C 54.519531 119.914063 51.292969 119.640625 50.628906 117.039063 L 50.816406 116.855469 C 54.925781 118.753906 59.570313 119.324219 64.269531 119.804688 "/>
<path style=" stroke:none;fill-rule:nonzero;fill:rgb(13.699341%,12.199402%,12.5%);fill-opacity:1;" d="M 284.707031 126.070313 L 282.496094 125.335938 C 283.34375 125.28125 284.359375 125.296875 284.707031 126.070313 "/>
<path style=" stroke:none;fill-rule:nonzero;fill:rgb(100%,100%,100%);fill-opacity:1;" d="M 181.675781 165.515625 C 181.234375 166.84375 181.308594 167.691406 181.308594 169.203125 C 181.320313 169.941406 181.46875 170.613281 181.492188 170.859375 C 177.769531 171.632813 174.453125 173.386719 170.804688 174.363281 C 169.511719 173.570313 170.875 172.5 170.988281 171.597656 C 173.621094 168.167969 177.179688 165.460938 181.492188 165.332031 L 181.675781 165.515625 "/>
<path style=" stroke:none;fill-rule:nonzero;fill:rgb(95.298767%,80.39856%,73.699951%);fill-opacity:1;" d="M 218.910156 214.910156 C 218.171875 217.546875 218.539063 220.644531 220.015625 222.835938 C 218.890625 223.628906 217.304688 224.441406 215.960938 223.574219 C 215.167969 223.09375 215.1875 221.96875 215.222656 220.992188 C 215.222656 218.503906 217.15625 216.664063 218.539063 214.910156 L 218.910156 214.910156 "/>
<path style=" stroke:none;fill-rule:nonzero;fill:rgb(95.298767%,80.39856%,73.699951%);fill-opacity:1;" d="M 225.542969 236.105469 C 227.367188 238.207031 229.175781 240.292969 229.230469 243.113281 C 227.625 243.035156 226.058594 242.042969 225.359375 240.53125 C 224.476563 239.167969 225.507813 237.691406 225.175781 236.105469 L 225.542969 236.105469 "/>
<path style=" stroke:none;fill-rule:nonzero;fill:rgb(97.599792%,77.999878%,74.499512%);fill-opacity:1;" d="M 124.539063 175.835938 L 124.355469 175.652344 C 118.882813 177.585938 113.628906 180.09375 108.320313 182.472656 C 104.042969 184.722656 99.34375 185.898438 95.601563 189.476563 C 94.609375 190.507813 93.769531 191.6875 93.105469 192.964844 C 102.425781 187.265625 117.433594 180.835938 123.628906 178.808594 C 123.875 177.808594 124.175781 176.816406 124.539063 175.835938 "/>
<path style=" stroke:none;fill-rule:nonzero;fill:rgb(88.999939%,11.399841%,23.899841%);fill-opacity:1;" d="M 122.9375 183.207031 C 123.050781 181.730469 123.273438 180.261719 123.628906 178.808594 C 117.433594 180.835938 102.425781 187.265625 93.105469 192.964844 C 91.441406 196.152344 90.890625 199.929688 91.804688 203.417969 C 92.636719 200.703125 94.054688 197.464844 96.457031 195.066406 C 96.457031 195.066406 104.757813 190.363281 122.9375 183.207031 "/>
<path style=" stroke:none;fill-rule:nonzero;fill:rgb(62.399292%,10.998535%,19.198608%);fill-opacity:1;" d="M 131.175781 205.695313 C 125.433594 199.839844 122.3125 191.488281 122.9375 183.207031 C 104.757813 190.363281 96.457031 195.066406 96.457031 195.066406 C 94.054688 197.464844 92.636719 200.703125 91.804688 203.417969 C 91.976563 204.066406 92.195313 204.707031 92.46875 205.328125 C 95.070313 210.746094 100.007813 215.980469 106.292969 216.386719 C 118.070313 215.28125 129.960938 214.453125 140.945313 211.410156 C 137.238281 210.582031 134.015625 208.21875 131.175781 205.695313 "/>
<path style=" stroke:none;fill-rule:nonzero;fill:rgb(88.999939%,11.399841%,23.899841%);fill-opacity:1;" d="M 138.027344 179.667969 C 138.464844 178.390625 139.066406 177.207031 139.839844 176.207031 C 142.574219 171.097656 147.410156 169.367188 152.160156 167.601563 C 150.011719 166.25 147.324219 165.441406 144.285156 165.539063 C 137.484375 165.753906 134.914063 167.542969 126.453125 173.945313 C 125.324219 175.921875 124.554688 178.230469 124.136719 180.660156 C 130.742188 176.167969 135.597656 178.023438 138.027344 179.667969 "/>
<path style=" stroke:none;fill-rule:nonzero;fill:rgb(62.399292%,10.998535%,19.198608%);fill-opacity:1;" d="M 167.300781 200.902344 C 162.746094 201.585938 158.324219 202.523438 153.660156 202.929688 C 147.230469 202.765625 141.460938 197.457031 138.730469 191.871094 C 136.925781 188.453125 136.691406 183.597656 138.027344 179.667969 C 135.597656 178.023438 130.742188 176.167969 124.136719 180.660156 C 123.265625 185.734375 123.917969 191.339844 126.015625 195.558594 C 128.023438 203.316406 135.691406 209.695313 143.339844 211.226563 C 152.019531 212.550781 161.734375 211.519531 166.5625 203.484375 C 166.804688 202.617188 167.613281 201.769531 167.300781 200.902344 "/>
<path style=" stroke:none;fill-rule:nonzero;fill:rgb(97.599792%,77.999878%,74.499512%);fill-opacity:1;" d="M 152.160156 167.601563 C 153.871094 166.964844 155.574219 166.320313 157.164063 165.515625 L 157.164063 165.332031 C 156.296875 164.628906 155.191406 164.464844 154.214844 164.039063 C 143.839844 160.90625 133.054688 164.609375 126.75 173.441406 C 126.648438 173.605469 126.550781 173.777344 126.453125 173.945313 C 134.914063 167.542969 137.484375 165.753906 144.285156 165.539063 C 147.324219 165.441406 150.011719 166.25 152.160156 167.601563 "/>
<path style=" stroke:none;fill-rule:nonzero;fill:rgb(99.598694%,92.498779%,88.999939%);fill-opacity:1;" d="M 168.589844 162.378906 L 168.40625 162.378906 L 150.34375 169.195313 L 145 171.777344 C 144.070313 172.527344 143.222656 173.332031 142.464844 174.1875 C 151.035156 170.730469 162.84375 166.355469 166.847656 164.882813 C 167.371094 163.996094 167.953125 163.152344 168.589844 162.378906 "/>
<path style=" stroke:none;fill-rule:nonzero;fill:rgb(95.298767%,80.39856%,73.699951%);fill-opacity:1;" d="M 165.824219 189.101563 C 162.441406 182.570313 162.621094 173.578125 165.871094 166.714844 C 160.59375 169.261719 143.605469 178.007813 138.878906 180.445313 C 138.171875 182.726563 137.972656 185.199219 138.363281 187.8125 C 139.765625 194.097656 145.257813 200.601563 151.816406 201.820313 C 158.621094 202.058594 164.960938 200.105469 171.539063 199.238281 L 171.90625 198.871094 C 169.328125 195.996094 167.300781 192.585938 165.824219 189.101563 "/>
<path style=" stroke:none;fill-rule:nonzero;fill:rgb(99.198914%,88.198853%,83.099365%);fill-opacity:1;" d="M 166.847656 164.882813 C 162.84375 166.355469 151.035156 170.730469 142.464844 174.1875 C 140.808594 176.054688 139.589844 178.15625 138.878906 180.445313 C 143.605469 178.007813 160.59375 169.261719 165.871094 166.714844 C 166.167969 166.085938 166.496094 165.472656 166.847656 164.882813 "/>
<path style=" stroke:none;fill-rule:nonzero;fill:rgb(99.598694%,92.498779%,88.999939%);fill-opacity:1;" d="M 194.246094 208.988281 L 176.261719 214.613281 C 177.414063 214.855469 178.609375 214.910156 179.835938 214.722656 C 185.53125 213.15625 191.296875 211.3125 196.605469 209.191406 C 195.8125 209.140625 195.027344 209.070313 194.246094 208.988281 "/>
<path style=" stroke:none;fill-rule:nonzero;fill:rgb(95.298767%,80.39856%,73.699951%);fill-opacity:1;" d="M 173.015625 199.976563 C 171.484375 200.214844 169.824219 200.199219 168.40625 200.714844 L 168.40625 201.453125 C 168.109375 203.496094 165.21875 205.378906 166.933594 207.347656 C 168.15625 209.410156 169.917969 211.375 172.015625 212.773438 L 188.511719 208.023438 C 182.789063 206.675781 177.546875 204.179688 173.015625 199.976563 "/>
<path style=" stroke:none;fill-rule:nonzero;fill:rgb(99.198914%,88.198853%,83.099365%);fill-opacity:1;" d="M 188.511719 208.023438 L 172.015625 212.773438 C 173.316406 213.640625 174.75 214.292969 176.261719 214.613281 L 194.246094 208.988281 C 192.289063 208.773438 190.375 208.460938 188.511719 208.023438 "/>
<path style=" stroke:none;fill-rule:nonzero;fill:rgb(88.999939%,11.399841%,23.899841%);fill-opacity:1;" d="M 185.664063 213.890625 L 185.363281 213.984375 C 182.746094 214.757813 180.441406 216.234375 177.253906 215.644531 C 175.355469 215.5 173.578125 214.851563 171.980469 213.871094 C 171.457031 215.375 170.445313 217.035156 168.59375 218.613281 C 166.175781 220.671875 161.296875 220.960938 159.109375 220.980469 C 162.222656 223.128906 165.902344 224.328125 169.78125 224.757813 C 172.855469 224.261719 176.925781 222.988281 180.710938 220.847656 C 184.324219 218.804688 185.367188 215.71875 185.664063 213.890625 "/>
<path style=" stroke:none;fill-rule:nonzero;fill:rgb(62.399292%,10.998535%,19.198608%);fill-opacity:1;" d="M 171.980469 213.871094 C 169.277344 212.207031 167.078125 209.585938 165.640625 206.796875 C 164.960938 206.539063 164.996094 207.203125 164.71875 207.535156 C 161.402344 210.242188 157.421875 212.105469 152.925781 212.328125 C 152.277344 213.082031 153.292969 214.039063 153.476563 214.90625 C 154.980469 217.457031 156.902344 219.457031 159.109375 220.980469 C 161.296875 220.960938 166.175781 220.671875 168.59375 218.613281 C 170.445313 217.035156 171.457031 215.375 171.980469 213.871094 "/>
<path style=" stroke:none;fill-rule:nonzero;fill:rgb(97.599792%,77.999878%,74.499512%);fill-opacity:1;" d="M 195.132813 210.851563 L 185.664063 213.890625 C 185.367188 215.71875 184.324219 218.804688 180.710938 220.847656 C 176.925781 222.988281 172.855469 224.261719 169.78125 224.757813 C 171.6875 224.96875 173.636719 224.996094 175.59375 224.859375 C 183.777344 224.121094 192.789063 219.515625 195.316406 211.035156 L 195.132813 210.851563 "/>
<path style=" stroke:none;fill-rule:nonzero;fill:rgb(62.399292%,10.998535%,19.198608%);fill-opacity:1;" d="M 151.449219 212.695313 C 148.261719 212.785156 145.203125 212.601563 142.234375 212.140625 C 136.574219 213.523438 130.789063 214.628906 124.910156 215.460938 C 123.5625 215.699219 122.089844 215.679688 120.855469 216.195313 C 120.3125 220.425781 122.804688 223.710938 125.71875 226.285156 C 130.476563 225.539063 146.53125 222.839844 155.609375 219.121094 C 153.742188 217.289063 152.25 215.121094 151.449219 212.695313 "/>
<path style=" stroke:none;fill-rule:nonzero;fill:rgb(88.999939%,11.399841%,23.899841%);fill-opacity:1;" d="M 155.609375 219.121094 C 146.53125 222.839844 130.476563 225.539063 125.71875 226.285156 C 125.878906 226.425781 126.039063 226.566406 126.199219 226.703125 C 126.988281 227.480469 127.863281 227.992188 128.792969 228.3125 C 147.738281 226.640625 159.1875 223.566406 161.03125 223.042969 C 159.078125 222.011719 157.207031 220.691406 155.609375 219.121094 "/>
<path style=" stroke:none;fill-rule:nonzero;fill:rgb(97.599792%,77.999878%,74.499512%);fill-opacity:1;" d="M 161.03125 223.042969 C 159.1875 223.566406 147.738281 226.640625 128.792969 228.3125 C 132.597656 229.621094 137.359375 227.734375 141.3125 227.808594 L 164.351563 225.042969 L 164.902344 224.675781 C 163.617188 224.265625 162.308594 223.714844 161.03125 223.042969 "/>
<path style=" stroke:none;fill-rule:nonzero;fill:rgb(3.49884%,43.099976%,21.998596%);fill-opacity:1;" d="M 196.789063 147.269531 C 190.101563 150.417969 183.945313 156.078125 182.414063 163.488281 L 182.597656 163.671875 C 182.539063 163.796875 182.488281 163.921875 182.4375 164.046875 C 184.996094 162.320313 190.054688 159.042969 194.460938 156.984375 C 194.742188 153.574219 195.671875 150.332031 196.789063 147.269531 "/>
<path style=" stroke:none;fill-rule:nonzero;fill:rgb(23.899841%,64.698792%,28.199768%);fill-opacity:1;" d="M 217.847656 199.460938 C 218.574219 199.621094 219.269531 199.773438 219.929688 199.921875 C 222.433594 199.011719 225.402344 197.785156 228.964844 196.152344 C 226.539063 195.734375 224.179688 195.164063 221.875 194.445313 C 219.457031 195.433594 216.074219 196.734375 212.921875 197.996094 C 214.472656 198.582031 216.113281 199.078125 217.847656 199.460938 "/>
<path style=" stroke:none;fill-rule:nonzero;fill:rgb(23.899841%,64.698792%,28.199768%);fill-opacity:1;" d="M 206.632813 194.808594 C 208.835938 193.960938 211.628906 192.945313 215.160156 191.722656 C 214.960938 191.617188 214.757813 191.511719 214.554688 191.40625 C 212.210938 192.324219 209.121094 193.476563 206.28125 194.574219 C 206.398438 194.652344 206.515625 194.730469 206.632813 194.808594 "/>
<path style=" stroke:none;fill-rule:nonzero;fill:rgb(23.899841%,64.698792%,28.199768%);fill-opacity:1;" d="M 196.164063 178.582031 C 196.363281 182.875 198.421875 187.300781 202.046875 191.035156 C 204.515625 190.011719 207.105469 188.90625 209.15625 187.957031 C 203.476563 183.683594 198.867188 177.945313 196.367188 171.367188 C 196.082031 172.609375 195.976563 174.511719 196.164063 178.582031 "/>
<path style=" stroke:none;fill-rule:nonzero;fill:rgb(3.49884%,43.099976%,21.998596%);fill-opacity:1;" d="M 217.847656 199.460938 C 216.113281 199.078125 214.472656 198.582031 212.921875 197.996094 C 210.859375 198.820313 208.894531 199.628906 207.359375 200.316406 C 209.179688 200.976563 211.046875 201.515625 212.957031 201.949219 C 214.769531 201.605469 217.035156 200.972656 219.929688 199.921875 C 219.269531 199.773438 218.574219 199.621094 217.847656 199.460938 "/>
<path style=" stroke:none;fill-rule:nonzero;fill:rgb(3.49884%,43.099976%,21.998596%);fill-opacity:1;" d="M 206.28125 194.574219 C 203.945313 195.472656 201.777344 196.335938 200.328125 196.996094 C 200.480469 197.089844 200.636719 197.179688 200.789063 197.269531 C 202.003906 196.675781 203.847656 195.878906 206.632813 194.808594 C 206.515625 194.730469 206.398438 194.652344 206.28125 194.574219 "/>
<path style=" stroke:none;fill-rule:nonzero;fill:rgb(3.49884%,43.099976%,21.998596%);fill-opacity:1;" d="M 196.164063 178.582031 C 195.976563 174.511719 196.082031 172.609375 196.367188 171.367188 C 195.398438 168.816406 194.75 166.140625 194.476563 163.375 C 191.703125 164.921875 185.816406 168.265625 181.996094 170.847656 C 182.425781 174.789063 183.832031 178.589844 185.546875 182.105469 C 188.058594 186.457031 191.4375 190.566406 195.453125 193.703125 C 197.011719 193.085938 199.464844 192.105469 202.046875 191.035156 C 198.421875 187.300781 196.363281 182.875 196.164063 178.582031 "/>
<path style=" stroke:none;fill-rule:nonzero;fill:rgb(100%,100%,100%);fill-opacity:1;" d="M 228.964844 196.152344 C 225.402344 197.785156 222.433594 199.011719 219.929688 199.921875 C 217.035156 200.972656 214.769531 201.605469 212.957031 201.949219 C 213.644531 202.105469 214.339844 202.25 215.039063 202.378906 L 215.222656 202.195313 C 215.847656 202.929688 217.046875 202.285156 217.800781 202.746094 C 218.003906 202.304688 218.28125 202.785156 218.539063 202.746094 C 220.671875 202.273438 222.777344 201.683594 224.839844 200.996094 C 228.234375 199.859375 231.511719 198.457031 234.574219 196.847656 C 232.671875 196.703125 230.800781 196.46875 228.964844 196.152344 "/>
<path style=" stroke:none;fill-rule:nonzero;fill:rgb(100%,100%,100%);fill-opacity:1;" d="M 194.460938 156.984375 C 190.054688 159.042969 184.996094 162.320313 182.4375 164.046875 C 181.8125 165.625 181.828125 167.140625 181.863281 168.832031 C 181.875 169.507813 181.921875 170.179688 181.996094 170.847656 C 185.816406 168.265625 191.703125 164.921875 194.476563 163.375 C 194.445313 163.042969 194.414063 162.714844 194.394531 162.382813 L 194.4375 162.222656 C 194.199219 160.445313 194.320313 158.679688 194.460938 156.984375 "/>
<path style=" stroke:none;fill-rule:nonzero;fill:rgb(100%,100%,100%);fill-opacity:1;" d="M 220.75 194.085938 C 218.84375 193.449219 216.972656 192.652344 215.160156 191.722656 C 211.628906 192.945313 208.835938 193.960938 206.632813 194.808594 C 203.847656 195.878906 202.003906 196.675781 200.789063 197.269531 C 202.898438 198.484375 205.089844 199.492188 207.359375 200.316406 C 208.894531 199.628906 210.859375 198.820313 212.921875 197.996094 C 216.074219 196.734375 219.457031 195.433594 221.875 194.445313 C 221.5 194.328125 221.125 194.210938 220.75 194.085938 "/>
<path style=" stroke:none;fill-rule:nonzero;fill:rgb(100%,100%,100%);fill-opacity:1;" d="M 214.554688 191.40625 C 212.679688 190.398438 210.871094 189.246094 209.15625 187.957031 C 207.105469 188.90625 204.515625 190.011719 202.046875 191.035156 C 199.464844 192.105469 197.011719 193.085938 195.453125 193.703125 C 196.300781 194.367188 197.179688 194.988281 198.082031 195.558594 C 198.816406 196.066406 199.566406 196.542969 200.328125 196.996094 C 201.777344 196.335938 203.945313 195.472656 206.28125 194.574219 C 209.121094 193.476563 212.210938 192.324219 214.554688 191.40625 "/>
<path style=" stroke:none;fill-rule:nonzero;fill:rgb(95.298767%,80.39856%,73.699951%);fill-opacity:1;" d="M 231.074219 248.640625 C 231.277344 249.785156 231.347656 250.980469 231.996094 251.957031 C 232.832031 253.527344 234.289063 254.625 235.960938 254.972656 C 235.957031 254.09375 235.921875 253.449219 235.875 252.976563 C 233.726563 252.488281 232.304688 250.152344 231.074219 248.640625 "/>
<g clip-path="url(#clip3)" clip-rule="nonzero">
<path style=" stroke:none;fill-rule:nonzero;fill:rgb(99.598694%,92.498779%,88.999939%);fill-opacity:1;" d="M 240.105469 252.511719 C 239.203125 253.324219 237.820313 252.972656 236.601563 253.0625 C 236.351563 253.058594 236.109375 253.027344 235.875 252.976563 C 235.921875 253.449219 235.957031 254.09375 235.960938 254.972656 C 236.347656 255.054688 236.75 255.09375 237.15625 255.089844 C 238.242188 255.054688 239.238281 254.816406 239.921875 253.800781 C 239.976563 253.378906 240.601563 252.933594 240.105469 252.511719 "/>
</g>
<path style=" stroke:none;fill-rule:nonzero;fill:rgb(99.598694%,92.498779%,88.999939%);fill-opacity:1;" d="M 284.058594 150.671875 C 283.457031 151.121094 284.507813 153.828125 283.90625 157.4375 C 283.304688 161.042969 281.652344 167.207031 277.144531 177.425781 C 272.636719 187.648438 271.28125 189.75 266.921875 196.363281 C 262.566406 202.976563 258.65625 207.488281 258.65625 207.488281 C 258.65625 207.488281 257.304688 209.890625 254.148438 216.203125 C 250.992188 222.515625 244.980469 228.226563 244.980469 228.226563 C 244.679688 236.195313 242.574219 237.546875 242.574219 237.546875 C 242.574219 237.546875 241.824219 236.496094 240.621094 236.792969 C 239.417969 237.09375 240.320313 240.550781 240.167969 243.257813 C 240.019531 245.960938 240.621094 247.617188 238.664063 249.570313 C 237.542969 250.691406 236.027344 250.773438 234.9375 250.636719 C 235.136719 251.164063 235.363281 251.625 235.597656 252.019531 C 236.316406 252.355469 237.097656 252.546875 237.949219 252.511719 C 239.019531 251.996094 240.363281 252.179688 241.082031 250.851563 C 242.796875 247.183594 241.488281 242.28125 242.925781 238.503906 C 243.371094 240.234375 242.300781 242.191406 242.925781 243.847656 C 243.921875 243 244.53125 242.003906 245.324219 241.082031 C 247.480469 237.671875 248.789063 233.527344 248.457031 229.472656 C 248.199219 229.433594 247.921875 229.914063 247.71875 229.472656 C 257.320313 219.445313 264.179688 208.292969 269.46875 196.480469 C 277.816406 184.722656 284.195313 172.132813 287.160156 158.144531 C 287.578125 155.460938 287.328125 152.859375 286.539063 150.425781 C 285.355469 150.175781 284.425781 150.394531 284.058594 150.671875 "/>
<path style=" stroke:none;fill-rule:nonzero;fill:rgb(99.598694%,92.498779%,88.999939%);fill-opacity:1;" d="M 271.882813 162.996094 C 267.523438 168.859375 255.652344 181.03125 247.382813 186.292969 C 241.558594 190 235.730469 193.332031 230.378906 195.820313 C 232.210938 196.078125 234.0625 196.234375 235.921875 196.296875 C 244.640625 192.054688 252.789063 186.453125 260.621094 180.078125 C 267.992188 172.261719 280.507813 165.367188 278.867188 153.167969 L 279.007813 153.023438 C 278.941406 152.863281 278.871094 152.726563 278.796875 152.625 C 278.347656 152.023438 276.242188 157.136719 271.882813 162.996094 "/>
<path style=" stroke:none;fill-rule:nonzero;fill:rgb(95.298767%,80.39856%,73.699951%);fill-opacity:1;" d="M 234.308594 243.40625 C 234.308594 243.40625 231.300781 241.152344 232.503906 234.539063 C 233.707031 227.925781 236.5625 225.070313 238.664063 221.464844 C 240.773438 217.855469 242.273438 213.648438 242.273438 213.648438 C 242.273438 213.648438 243.328125 209.742188 249.488281 201.625 C 255.164063 194.148438 264.925781 179.78125 267.71875 174.863281 C 257.300781 184.980469 245.097656 193.25 232.605469 198.875 C 227.90625 199.578125 227.40625 204.941406 225.96875 208.460938 L 225.601563 208.09375 C 222.949219 209.675781 220.292969 212.074219 219.519531 215.097656 C 218.503906 218.910156 220.257813 222.0625 222.285156 224.863281 C 222.097656 228.511719 223.019531 231.703125 225.046875 234.449219 C 230.449219 238.117188 229.5625 244.75 232.605469 249.5625 C 233.449219 250.550781 234.4375 251.480469 235.597656 252.019531 C 234.617188 250.367188 233.800781 247.667969 234.308594 243.40625 "/>
<path style=" stroke:none;fill-rule:nonzero;fill:rgb(95.298767%,80.39856%,73.699951%);fill-opacity:1;" d="M 243.328125 136.394531 C 247.535156 144.511719 250.691406 150.222656 259.257813 152.023438 C 267.824219 153.828125 274.738281 149.921875 281.503906 148.71875 C 283.097656 148.433594 284.539063 148.421875 285.816406 148.5625 C 284.660156 146.015625 282.90625 143.703125 280.710938 141.738281 C 278.792969 139.140625 277.097656 142.679688 275.179688 142.84375 L 274.996094 142.660156 C 276.25 141.222656 278.277344 140.394531 279.605469 139.160156 C 266.683594 135.046875 254.039063 127.898438 244.953125 116.855469 C 244.53125 118.148438 244.363281 119.546875 243.664063 120.726563 C 242.707031 119.859375 243.976563 118.589844 243.296875 117.777344 C 235.875 113.203125 226.472656 110.777344 217.355469 112.59375 C 232.785156 115.765625 239.160156 128.359375 243.328125 136.394531 "/>
<path style=" stroke:none;fill-rule:nonzero;fill:rgb(95.298767%,80.39856%,73.699951%);fill-opacity:1;" d="M 64.292969 118.695313 C 63.4375 117.777344 62.417969 117.128906 61.460938 116.855469 C 59.359375 116.253906 59.808594 117.304688 54.097656 115.503906 C 51.070313 114.546875 48.632813 113.503906 47.011719 112.738281 C 50.902344 117.632813 58.101563 118.066406 64.292969 118.695313 "/>
<path style=" stroke:none;fill-rule:nonzero;fill:rgb(95.298767%,80.39856%,73.699951%);fill-opacity:1;" d="M 216.121094 147.066406 C 220.929688 144.660156 221.082031 144.210938 221.082031 141.351563 C 221.082031 138.5 221.53125 134.742188 218.527344 134.742188 C 215.519531 134.742188 207.253906 135.492188 194.328125 135.792969 C 181.402344 136.09375 162.464844 135.640625 154.199219 134.890625 C 145.929688 134.140625 143.976563 133.6875 143.675781 133.085938 C 143.675781 133.085938 131.503906 134.289063 119.929688 133.386719 C 108.355469 132.488281 99.941406 129.480469 95.882813 129.179688 C 95.882813 129.179688 90.46875 132.9375 85.960938 135.042969 C 81.453125 137.144531 72.886719 136.242188 68.976563 135.640625 C 65.070313 135.042969 64.917969 134.140625 62.214844 135.640625 C 60.507813 136.589844 57.191406 138.253906 54.253906 138.714844 C 54.335938 139.304688 54.492188 139.886719 54.742188 140.449219 C 57.027344 143.359375 61.25 141.867188 64.511719 141.738281 C 71.074219 140.023438 74.980469 144.652344 80.730469 144.871094 C 86.960938 143.894531 92.507813 141.242188 98.054688 138.605469 C 97.742188 138.367188 97.171875 138.382813 97.136719 137.867188 L 97.320313 137.683594 C 107.363281 140.320313 117.980469 141.589844 128.835938 142.292969 L 147.636719 142.476563 L 170.859375 143.214844 L 206.433594 143.582031 L 211.410156 143.949219 C 210.726563 144.078125 210.175781 144.464844 209.382813 144.320313 C 205.75 145.203125 200.867188 143.066406 198.136719 146.164063 C 194.824219 153.222656 194.238281 162.96875 196.894531 170.660156 C 197.746094 167.449219 199.300781 163.785156 202.144531 159.839844 C 206.804688 153.378906 211.3125 149.46875 216.121094 147.066406 "/>
<path style=" stroke:none;fill-rule:nonzero;fill:rgb(99.598694%,92.498779%,88.999939%);fill-opacity:1;" d="M 49.4375 106.933594 C 53.546875 107.539063 61.253906 109.019531 67.238281 105.980469 C 66.882813 106.101563 66.527344 106.226563 66.171875 106.351563 C 59.496094 107.585938 53.378906 104.101563 46.816406 105.0625 C 45.886719 105.769531 45.285156 106.875 45.164063 108.078125 C 46.171875 107.238281 47.558594 106.660156 49.4375 106.933594 "/>
<path style=" stroke:none;fill-rule:nonzero;fill:rgb(99.198914%,88.198853%,83.099365%);fill-opacity:1;" d="M 284.058594 150.671875 C 284.425781 150.394531 285.355469 150.175781 286.539063 150.425781 C 286.335938 149.792969 286.089844 149.171875 285.816406 148.5625 C 284.539063 148.421875 283.097656 148.433594 281.503906 148.71875 C 274.738281 149.921875 267.824219 153.828125 259.257813 152.023438 C 250.691406 150.222656 247.535156 144.511719 243.328125 136.394531 C 239.160156 128.359375 232.785156 115.765625 217.355469 112.59375 C 217.03125 112.65625 216.707031 112.726563 216.386719 112.800781 L 216.203125 112.617188 L 217.492188 111.695313 C 204 108.195313 189.21875 107.179688 174.914063 106.164063 L 156.484375 105.796875 C 143.765625 104.101563 131.121094 102.222656 117.59375 102.480469 C 112.453125 102.441406 107.402344 103.253906 102.480469 103.21875 L 103.03125 102.664063 C 100.414063 101.375 97.246094 100.636719 94.003906 100.453125 C 84.433594 100.222656 75.726563 103.03125 67.238281 105.980469 C 61.253906 109.019531 53.546875 107.539063 49.4375 106.933594 C 47.558594 106.660156 46.171875 107.238281 45.164063 108.078125 C 45.101563 108.660156 45.15625 109.261719 45.34375 109.851563 C 45.789063 110.957031 46.351563 111.910156 47.011719 112.738281 C 48.632813 113.503906 51.070313 114.546875 54.097656 115.503906 C 59.808594 117.304688 59.359375 116.253906 61.460938 116.855469 C 62.417969 117.128906 63.4375 117.777344 64.292969 118.695313 C 64.304688 118.699219 64.316406 118.699219 64.328125 118.699219 C 66.648438 120.875 69.691406 123.621094 68.933594 127.179688 C 67.609375 130.128906 64.015625 129.207031 61.195313 129.390625 C 59.3125 130.054688 57.507813 130.882813 56.03125 132.523438 C 54.757813 134.207031 53.960938 136.519531 54.253906 138.714844 C 57.191406 138.253906 60.507813 136.589844 62.214844 135.640625 C 64.917969 134.140625 65.070313 135.042969 68.976563 135.640625 C 72.886719 136.242188 81.453125 137.144531 85.960938 135.042969 C 90.46875 132.9375 95.882813 129.179688 95.882813 129.179688 C 99.941406 129.480469 108.355469 132.488281 119.929688 133.386719 C 131.503906 134.289063 143.675781 133.085938 143.675781 133.085938 C 143.976563 133.6875 145.929688 134.140625 154.199219 134.890625 C 162.464844 135.640625 181.402344 136.09375 194.328125 135.792969 C 207.253906 135.492188 215.519531 134.742188 218.527344 134.742188 C 221.53125 134.742188 221.082031 138.5 221.082031 141.351563 C 221.082031 144.210938 220.929688 144.660156 216.121094 147.066406 C 211.3125 149.46875 206.804688 153.378906 202.144531 159.839844 C 199.300781 163.785156 197.746094 167.449219 196.894531 170.660156 C 197.296875 171.824219 197.769531 172.941406 198.324219 173.992188 C 204.601563 186.859375 216.910156 193.957031 230.378906 195.820313 C 235.730469 193.332031 241.558594 190 247.382813 186.292969 C 255.652344 181.03125 267.523438 168.859375 271.882813 162.996094 C 276.242188 157.136719 278.347656 152.023438 278.796875 152.625 C 278.871094 152.726563 278.941406 152.863281 279.007813 153.023438 L 279.050781 152.980469 C 280.601563 156.59375 279.53125 160.945313 277.578125 164.039063 C 274.53125 167.835938 271.226563 171.457031 267.71875 174.863281 C 264.925781 179.78125 255.164063 194.148438 249.488281 201.625 C 243.328125 209.742188 242.273438 213.648438 242.273438 213.648438 C 242.273438 213.648438 240.773438 217.855469 238.664063 221.464844 C 236.5625 225.070313 233.707031 227.925781 232.503906 234.539063 C 231.300781 241.152344 234.308594 243.40625 234.308594 243.40625 C 233.925781 246.644531 234.300781 248.976563 234.9375 250.636719 C 236.027344 250.773438 237.542969 250.691406 238.664063 249.570313 C 240.621094 247.617188 240.019531 245.960938 240.167969 243.257813 C 240.320313 240.550781 239.417969 237.09375 240.621094 236.792969 C 241.824219 236.496094 242.574219 237.546875 242.574219 237.546875 C 242.574219 237.546875 244.679688 236.195313 244.980469 228.226563 C 244.980469 228.226563 250.992188 222.515625 254.148438 216.203125 C 257.304688 209.890625 258.65625 207.488281 258.65625 207.488281 C 258.65625 207.488281 262.566406 202.976563 266.921875 196.363281 C 271.28125 189.75 272.636719 187.648438 277.144531 177.425781 C 281.652344 167.207031 283.304688 161.042969 283.90625 157.4375 C 284.507813 153.828125 283.457031 151.121094 284.058594 150.671875 "/>
<path style=" stroke:none;fill-rule:nonzero;fill:rgb(99.598694%,92.498779%,88.999939%);fill-opacity:1;" d="M 94.828125 109.941406 C 94.828125 109.941406 103.546875 108.738281 113.46875 109.039063 C 123.386719 109.339844 138.867188 111.59375 144.277344 114.300781 C 144.277344 114.300781 158.105469 113.246094 169.078125 114 C 180.050781 114.75 198.234375 115.503906 209.960938 118.207031 C 221.683594 120.914063 223.789063 121.363281 225.742188 122.265625 C 227.695313 123.167969 227.996094 122.117188 226.644531 120.460938 C 225.289063 118.808594 221.382813 114.902344 209.207031 112.195313 C 197.035156 109.488281 181.703125 106.183594 148.335938 108.589844 C 148.335938 108.589844 131.351563 102.125 99.339844 105.433594 C 99.339844 105.433594 86.261719 102.578125 78.296875 105.582031 C 70.332031 108.589844 72.585938 108.890625 75.742188 108.4375 C 78.898438 107.988281 89.269531 105.882813 94.828125 109.941406 "/>
<path style=" stroke:none;fill-rule:nonzero;fill:rgb(99.198914%,88.198853%,83.099365%);fill-opacity:1;" d="M 307.148438 113.449219 C 307.710938 112.761719 308.339844 111.074219 307.589844 110.011719 C 306.835938 108.945313 304.960938 107.632813 306.023438 106.195313 C 306.46875 105.59375 307.109375 105.320313 307.800781 105.273438 C 307.316406 105.007813 306.804688 104.804688 306.273438 104.691406 C 304.558594 104.285156 302.625 104.449219 301.480469 105.980469 C 301.199219 106.328125 300.960938 106.714844 300.765625 107.128906 C 301 107.054688 301.242188 107.085938 301.460938 107.320313 C 302.210938 108.132813 302.460938 108.695313 302.523438 109.695313 C 302.585938 110.699219 303.273438 111.949219 303.773438 112.824219 C 304.101563 113.402344 304.625 113.761719 305.15625 114.230469 C 305.351563 114.25 305.546875 114.261719 305.746094 114.269531 C 306.292969 114.058594 306.882813 113.773438 307.148438 113.449219 "/>
<path style=" stroke:none;fill-rule:nonzero;fill:rgb(99.598694%,92.498779%,88.999939%);fill-opacity:1;" d="M 307.800781 105.273438 C 307.109375 105.320313 306.46875 105.59375 306.023438 106.195313 C 304.960938 107.632813 306.835938 108.945313 307.589844 110.011719 C 308.339844 111.074219 307.710938 112.761719 307.148438 113.449219 C 306.882813 113.773438 306.292969 114.058594 305.746094 114.269531 C 307.15625 114.308594 308.535156 113.933594 309.40625 112.617188 C 310.511719 111.253906 310.84375 109.113281 310.144531 107.457031 C 309.53125 106.539063 308.71875 105.785156 307.800781 105.273438 "/>
<path style=" stroke:none;fill-rule:nonzero;fill:rgb(95.298767%,80.39856%,73.699951%);fill-opacity:1;" d="M 303.773438 112.824219 C 303.273438 111.949219 302.585938 110.699219 302.523438 109.695313 C 302.460938 108.695313 302.210938 108.132813 301.460938 107.320313 C 301.242188 107.085938 301 107.054688 300.765625 107.128906 C 300.128906 108.480469 299.980469 110.113281 300.558594 111.511719 C 301.628906 112.765625 302.84375 113.609375 304.246094 114.089844 C 304.542969 114.148438 304.847656 114.195313 305.15625 114.230469 C 304.625 113.761719 304.101563 113.402344 303.773438 112.824219 "/>
</g>
</svg>
